<svg width="150" height="150" viewBox="0 0 150 150" fill="none" xmlns="http://www.w3.org/2000/svg">
<path d="M25 37.5L63.1727 66.3267L63.1855 66.3372C67.4241 69.4455 69.5446 71.0006 71.8672 71.6013C73.9202 72.1323 76.0782 72.1323 78.1311 71.6013C80.4558 71.0001 82.5825 69.4405 86.8286 66.3267C86.8286 66.3267 111.313 47.5371 125 37.5M18.75 98.7512V51.2512C18.75 44.2506 18.75 40.7476 20.1124 38.0737C21.3108 35.7217 23.2217 33.8108 25.5737 32.6124C28.2476 31.25 31.7506 31.25 38.7512 31.25H111.251C118.252 31.25 121.747 31.25 124.421 32.6124C126.773 33.8108 128.691 35.7217 129.889 38.0737C131.25 40.745 131.25 44.2437 131.25 51.2307V98.7724C131.25 105.759 131.25 109.253 129.889 111.924C128.691 114.276 126.773 116.19 124.421 117.389C121.75 118.75 118.256 118.75 111.269 118.75H38.7307C31.7437 118.75 28.245 118.75 25.5737 117.389C23.2217 116.19 21.3108 114.276 20.1124 111.924C18.75 109.25 18.75 105.752 18.75 98.7512Z" stroke="url(#paint0_linear_417_2304)" stroke-linecap="round" stroke-linejoin="round"/>
<defs>
<linearGradient id="paint0_linear_417_2304" x1="75" y1="118.75" x2="75" y2="31.25" gradientUnits="userSpaceOnUse">
<stop stop-color="#CCE3FF"/>
<stop offset="1" stop-color="#0074F9"/>
</linearGradient>
</defs>
</svg>
