<svg width="26" height="26" viewBox="0 0 26 26" fill="none" xmlns="http://www.w3.org/2000/svg">
<path d="M19.1317 12.1333C18.8825 11.8083 18.5792 11.5267 18.2975 11.245C17.5717 10.595 16.7483 10.1292 16.055 9.44667C14.4408 7.865 14.0833 5.25417 15.1125 3.25C14.0833 3.49917 13.1842 4.0625 12.415 4.68C9.60916 6.93333 8.50416 10.9092 9.82583 14.3217C9.86916 14.43 9.91249 14.5383 9.91249 14.6792C9.91249 14.9175 9.74999 15.1342 9.53333 15.2208C9.28416 15.3292 9.02416 15.2642 8.81833 15.0908C8.75684 15.0393 8.70542 14.9769 8.66666 14.9067C7.44249 13.3575 7.24749 11.1367 8.07083 9.36C6.26166 10.8333 5.27583 13.325 5.41666 15.6758C5.48166 16.2175 5.54666 16.7592 5.73083 17.3008C5.88249 17.9508 6.17499 18.6008 6.49999 19.175C7.66999 21.0492 9.69583 22.3925 11.8733 22.6633C14.1917 22.9558 16.6725 22.5333 18.4492 20.93C20.4317 19.1317 21.125 16.25 20.1067 13.78L19.9658 13.4983C19.7383 13 19.1317 12.1333 19.1317 12.1333ZM15.7083 18.9583C15.405 19.2183 14.9067 19.5 14.5167 19.6083C13.3033 20.0417 12.09 19.435 11.375 18.72C12.6642 18.4167 13.4333 17.4633 13.6608 16.4992C13.845 15.6325 13.4983 14.9175 13.3575 14.0833C13.2275 13.2817 13.2492 12.5992 13.5417 11.8517C13.7475 12.2633 13.9642 12.675 14.2242 13C15.0583 14.0833 16.3692 14.56 16.6508 16.0333C16.6942 16.185 16.7158 16.3367 16.7158 16.4992C16.7483 17.3875 16.3583 18.3625 15.7083 18.9583Z" fill="#0661E0"/>
</svg>
