<svg width="28" height="28" viewBox="0 0 28 28" fill="none" xmlns="http://www.w3.org/2000/svg">
<path d="M10.6784 6.30901C12.1566 3.65834 12.8951 2.33301 13.9999 2.33301C15.1048 2.33301 15.8433 3.65834 17.3214 6.30901L17.7041 6.99501C18.1241 7.74867 18.3341 8.12551 18.6608 8.37401C18.9874 8.62251 19.3958 8.71467 20.2124 8.89901L20.9544 9.06701C23.8244 9.71684 25.2583 10.0412 25.6001 11.139C25.9408 12.2357 24.9631 13.3802 23.0066 15.668L22.5003 16.2595C21.9449 16.9093 21.6661 17.2348 21.5413 17.6362C21.4164 18.0387 21.4584 18.4727 21.5424 19.3395L21.6194 20.1293C21.9146 23.1825 22.0628 24.7085 21.1691 25.3863C20.2754 26.0642 18.9314 25.4458 16.2458 24.2092L15.5493 23.8895C14.7863 23.5372 14.4048 23.3622 13.9999 23.3622C13.5951 23.3622 13.2136 23.5372 12.4506 23.8895L11.7553 24.2092C9.06845 25.4458 7.72445 26.0642 6.83195 25.3875C5.93712 24.7085 6.08528 23.1825 6.38045 20.1293L6.45745 19.3407C6.54145 18.4727 6.58345 18.0387 6.45745 17.6373C6.33378 17.2348 6.05495 16.9093 5.49962 16.2607L4.99328 15.668C3.03678 13.3813 2.05912 12.2368 2.39978 11.139C2.74045 10.0412 4.17662 9.71567 7.04662 9.06701L7.78862 8.89901C8.60412 8.71467 9.01128 8.62251 9.33912 8.37401C9.66695 8.12551 9.87578 7.74867 10.2958 6.99501L10.6784 6.30901Z" fill="#0661E0"/>
</svg>
